
<svg width="300px" height="29px" viewBox="0 0 300 29" version="1.1" xmlns="http://www.w3.org/2000/svg" xmlns:xlink="http://www.w3.org/1999/xlink">
    <!-- Generator: Sketch 46.2 (44496) - http://www.bohemiancoding.com/sketch -->
    <desc>Created with Sketch.</desc>
    <defs></defs>
    <g id="Page-1" stroke="none" stroke-width="1" fill="none" fill-rule="evenodd">
        <g id="20170815_-Versie-2" fill-rule="nonzero" fill="#000000">
            <path d="M12.7810651,13.2010417 C7.92899408,12.8083333 3.75739645,12.4458333 3.75739645,8.73020833 C3.75739645,4.86354167 9.17159763,3.715625 11.9822485,3.715625 C15,3.715625 19.4674556,4.259375 20.7100592,7.521875 C21.3313609,8.971875 24.1715976,8.21666667 23.5502959,6.49479167 C21.8047337,1.63125 16.3313609,0.573958333 11.9526627,0.573958333 C6.86390533,0.573958333 0.50295858,3.08125 0.50295858,8.7 C0.50295858,15.04375 6.68639053,15.6177083 12.4260355,16.0708333 C17.0118343,16.4635417 21.3905325,16.765625 21.3905325,20.4510417 C21.3905325,24.740625 15.887574,25.8583333 12.3372781,25.8583333 C8.99408284,25.8583333 4.37869822,25.103125 3.28402367,21.56875 C2.95857988,19.8166667 -0.295857988,20.4510417 0.207100592,22.3239583 C1.59763314,27.4291667 8.10650888,28.9395833 12.3668639,28.9395833 C17.5147929,28.9395833 24.6449704,26.9458333 24.6449704,20.4208333 C24.6153846,14.0166667 18.4911243,13.7145833 12.7810651,13.2010417 Z" id="XMLID_98_"></path>
            <path d="M64.112426,6.67604167 C62.6627219,3.56458333 59.4970414,1.14791667 54.4378698,1.14791667 L45.3846154,1.14791667 C44.556213,1.14791667 43.8461538,1.75208333 43.8461538,2.628125 L43.8461538,5.92083333 L43.8461538,6.64583333 L46.8639053,6.64583333 L46.8639053,3.92708333 L54.4970414,3.92708333 C57.2485207,3.92708333 59.2899408,5.075 60.591716,6.67604167 C61.5680473,7.91458333 62.1005917,9.425 62.1005917,10.9354167 C62.1301775,12.14375 61.8343195,13.3822917 61.1538462,14.4395833 C60,16.1916667 57.8106509,17.490625 54.3491124,17.490625 L46.8639053,17.490625 L46.8639053,14.4395833 L43.8461538,14.4395833 L43.8461538,27.1875 C43.8461538,29.0604167 46.8639053,29.090625 46.8639053,27.1572917 L46.8639053,20.3 L54.3491124,20.3 C59.8816568,20.3 63.1952663,17.8833333 64.4674556,14.4697917 C64.8816568,13.3822917 65.0887574,12.2041667 65.0887574,10.965625 C65.0295858,9.48541667 64.7337278,8.00520833 64.112426,6.67604167 Z" id="XMLID_48_"></path>
            <path d="M107.159763,26.4927083 L101.153846,14.4395833 L97.2781065,6.67604167 L94.5857988,1.26875 C94.2899408,0.725 93.7869822,0.453125 93.2544379,0.453125 C92.7218935,0.453125 92.1301775,0.694791667 91.8639053,1.26875 L89.1715976,6.67604167 L92.4260355,6.67604167 L93.2248521,5.01458333 L94.0236686,6.67604167 L97.8106509,14.4395833 L99.7633136,18.4572917 L86.6272189,18.4572917 L88.5798817,14.4395833 L85.295858,14.4395833 L79.2899408,26.64375 C78.5502959,28.3354167 81.3017751,29.453125 82.0414201,27.8822917 L85.4142012,21.1458333 L101.094675,21.1458333 L104.349112,27.7614583 C105.147929,29.3927083 108.254438,28.3354167 107.159763,26.4927083 Z" id="XMLID_55_"></path>
            <path d="M140.769231,18.6083333 C144.053254,18.034375 146.183432,16.5541667 147.278107,14.4395833 C147.899408,13.2614583 148.195266,11.8416667 148.195266,10.3010417 C148.195266,9.03229167 147.95858,7.79375 147.455621,6.67604167 C146.065089,3.44375 142.662722,1.14791667 137.307692,1.14791667 L127.426036,1.14791667 C126.508876,1.14791667 125.887574,1.75208333 125.887574,2.628125 L125.887574,6.67604167 L128.934911,6.67604167 L128.934911,3.9875 L137.366864,3.9875 C140.325444,3.9875 142.544379,5.04479167 143.846154,6.67604167 C144.674556,7.703125 145.118343,8.94166667 145.118343,10.3010417 C145.147929,11.9322917 144.556213,13.3822917 143.254438,14.4395833 C141.982249,15.4666667 140.029586,16.1010417 137.337278,16.1010417 L128.905325,16.1010417 L128.905325,14.4395833 L125.857988,14.4395833 L125.857988,27.096875 C125.857988,29 128.905325,29 128.905325,27.0666667 L128.905325,18.7895833 L137.011834,18.7895833 L145.443787,28.1239583 C146.83432,29.5739583 149.112426,27.7010417 147.544379,26.0697917 L140.769231,18.6083333 Z" id="XMLID_4_"></path>
            <path d="M190.029586,10.3010417 C190.029586,5.31666667 186.360947,1.14791667 179.142012,1.14791667 L169.230769,1.14791667 C168.313609,1.14791667 167.692308,1.75208333 167.692308,2.628125 L167.692308,6.67604167 L170.739645,6.67604167 L170.739645,3.9875 L179.171598,3.9875 C184.023669,3.9875 186.893491,6.796875 186.923077,10.3010417 C187.011834,13.503125 184.615385,16.1010417 179.171598,16.1010417 L170.739645,16.1010417 L170.739645,14.4395833 L167.692308,14.4395833 L167.692308,27.096875 C167.692308,29 170.739645,29 170.739645,27.0666667 L170.739645,18.7895833 L178.846154,18.7895833 L187.278107,28.1239583 C188.668639,29.5739583 190.946746,27.7010417 189.378698,26.0697917 L182.60355,18.6083333 C187.721893,17.7322917 190.029586,14.6208333 190.029586,10.3010417 Z" id="XMLID_111_"></path>
            <path d="M210.088757,1.75208333 L210.088757,27.2479167 C210.088757,29.3020833 213.224852,29.2114583 213.224852,27.2479167 L213.224852,1.75208333 C213.224852,-0.332291667 210.088757,-0.392708333 210.088757,1.75208333 Z" id="XMLID_113_"></path>
            <path d="M252.810651,2.20520833 L252.810651,17.2791667 L253.224852,23.7135417 L237.159763,1.75208333 C236.12426,0.18125 233.786982,0.513541667 233.786982,2.65833333 L233.786982,27.0666667 C233.786982,29.2114583 236.952663,29.1510417 236.952663,27.0666667 L236.952663,12.053125 L236.627219,6.1625 L252.248521,27.5197917 C253.136095,29 256.005917,28.7885417 256.005917,26.6739583 L256.005917,2.20520833 C255.976331,0.332291667 252.810651,0.422916667 252.810651,2.20520833 Z" id="XMLID_114_"></path>
            <path d="M298.224852,13.4729167 L289.378698,13.4729167 C287.633136,13.4729167 287.426036,16.2822917 289.378698,16.2822917 L296.893491,16.2822917 L296.893491,21.9614583 C295.059172,24.46875 291.83432,25.828125 288.757396,25.7979167 C283.372781,25.6770833 278.609467,20.6322917 278.52071,14.6208333 C278.52071,9.03229167 282.514793,4.89375 287.130178,3.80625 C290.266272,2.990625 294.142012,3.9875 296.47929,6.73645833 C297.781065,8.27708333 299.911243,6.22291667 298.639053,4.74270833 C296.331361,2.02395833 292.455621,0.725 288.816568,0.725 C288.076923,0.725 287.278107,0.755208333 286.656805,0.845833333 C280.266272,2.084375 275.502959,8.00520833 275.502959,14.4697917 C275.325444,22.5354167 281.508876,28.6072917 288.698225,28.6677083 C292.751479,28.6979167 296.863905,26.8854167 299.349112,23.5625 C299.733728,23.1697917 299.822485,22.6260417 299.822485,22.1427083 L299.822485,15.04375 C299.792899,14.1072917 299.43787,13.4729167 298.224852,13.4729167 Z" id="XMLID_115_"></path>
        </g>
    </g>
</svg>
