
<svg width="280px" height="55px" viewBox="0 0 280 55" version="1.1" xmlns="http://www.w3.org/2000/svg" xmlns:xlink="http://www.w3.org/1999/xlink">
    <!-- Generator: Sketch 46.2 (44496) - http://www.bohemiancoding.com/sketch -->
    <desc>Created with Sketch.</desc>
    <defs></defs>
    <g id="Page-1" stroke="none" stroke-width="1" fill="none" fill-rule="evenodd">
        <g id="20170815_-Versie-2">
            <rect id="XMLID_28_" fill="#204497" fill-rule="nonzero" x="0" y="28.6619718" width="279.948148" height="1.21361502"></rect>
            <g id="sparring" transform="translate(8.555556, 0.000000)">
                <polygon id="XMLID_85_" points="77.6740741 14.6666667 85.762963 14.6666667 82.4185185 8.03051643 81.0185185 8.03051643"></polygon>
                <path d="M112.959259,17.2488263 L125.533333,17.2488263 C126.674074,16.3450704 127.192593,15.1056338 127.166667,13.7112676 C127.140741,12.5492958 126.751852,11.4906103 126.051852,10.6126761 L112.985185,10.6126761 L112.985185,17.2488263 L112.959259,17.2488263 Z" id="XMLID_87_"></path>
                <path d="M120.348148,8.31455399 L112.959259,8.31455399 L112.959259,10.6126761 L126.025926,10.6126761 C124.885185,9.21830986 122.940741,8.31455399 120.348148,8.31455399 Z" id="XMLID_88_"></path>
                <path d="M41.0407407,17.2488263 L53.562963,17.2488263 C54.1592593,16.3450704 54.4185185,15.286385 54.3925926,14.2535211 C54.3666667,12.9624413 53.9259259,11.6713615 53.0703704,10.6126761 L41.0407407,10.6126761 L41.0407407,17.2488263 Z" id="XMLID_90_"></path>
                <path d="M41.0407407,19.8826291 L47.6,19.8826291 C50.6333333,19.8826291 52.5777778,18.7723005 53.562963,17.2746479 L41.0407407,17.2746479 L41.0407407,19.8826291 Z" id="XMLID_91_"></path>
                <polygon id="XMLID_92_" points="75.937037 20.6830986 87.4740741 20.6830986 85.762963 17.2488263 77.6740741 17.2488263"></polygon>
                <path d="M56.1814815,10.6126761 C56.7259259,11.7488263 56.9851852,13.0140845 56.9851852,14.2535211 C56.9851852,15.3122066 56.8037037,16.3192488 56.4407407,17.2488263 L74.7703704,17.2488263 L78.1407407,10.6126761 L56.1814815,10.6126761 L56.1814815,10.6126761 Z" id="XMLID_94_"></path>
                <polygon id="XMLID_95_" points="81.0185185 10.6126761 82.4185185 10.6126761 81.7185185 9.19248826"></polygon>
                <path d="M129.214815,10.6126761 C129.62963,11.5680751 129.862963,12.6267606 129.862963,13.7112676 C129.862963,15.028169 129.603704,16.2159624 129.059259,17.2488263 L146.948148,17.2488263 L146.948148,10.6126761 L129.214815,10.6126761 Z" id="XMLID_96_"></path>
                <path d="M153.533333,17.2488263 L149.618519,17.2488263 L149.618519,18.6690141 L157.007407,18.6690141 C161.803704,18.6690141 163.877778,16.4483568 163.8,13.7112676 C163.774074,10.7159624 161.233333,8.31455399 157.007407,8.31455399 L149.618519,8.31455399 L149.618519,10.6126761 L153.533333,10.6126761 L149.618519,10.6126761 L149.618519,17.2488263 L153.533333,17.2488263 Z" id="XMLID_97_"></path>
                <path d="M11.2,11.2840376 C6.94814815,10.9483568 3.29259259,10.6384977 3.29259259,7.46244131 C3.29259259,4.157277 8.03703704,3.17605634 10.5,3.17605634 C13.1444444,3.17605634 17.0592593,3.64084507 18.1481481,6.42957746 C18.6925926,7.66901408 21.1814815,7.02347418 20.637037,5.55164319 C19.1074074,1.3943662 14.3111111,0.490610329 10.4740741,0.490610329 C6.01481481,0.490610329 0.440740741,2.63380282 0.440740741,7.43661972 C0.440740741,12.8591549 5.85925926,13.3497653 10.8888889,13.7370892 C14.9074074,14.07277 18.7444444,14.3309859 18.7444444,17.4812207 C18.7444444,21.1478873 13.9222222,22.1032864 10.8111111,22.1032864 C7.88148148,22.1032864 3.83703704,21.4577465 2.87777778,18.4366197 C2.59259259,16.9389671 -0.259259259,17.4812207 0.181481481,19.0821596 C1.4,23.4460094 7.1037037,24.7370892 10.837037,24.7370892 C15.3481481,24.7370892 21.5962963,23.0328638 21.5962963,17.4553991 C21.5703704,11.9812207 16.2037037,11.7230047 11.2,11.2840376 Z" id="XMLID_98_" fill="#000000" fill-rule="nonzero"></path>
                <path d="M56.1814815,5.70657277 C54.9111111,3.04694836 52.137037,0.981220657 47.7037037,0.981220657 L39.7703704,0.981220657 C39.0444444,0.981220657 38.4222222,1.49765258 38.4222222,2.24647887 L38.4222222,5.06103286 L38.4222222,5.68075117 L41.0666667,5.68075117 L41.0666667,3.35680751 L47.7555556,3.35680751 C50.1666667,3.35680751 51.9555556,4.33802817 53.0962963,5.70657277 C53.9518519,6.76525822 54.4185185,8.05633803 54.4185185,9.34741784 C54.4444444,10.3802817 54.1851852,11.4389671 53.5888889,12.342723 C52.5777778,13.8403756 50.6592593,14.9507042 47.6259259,14.9507042 L41.0666667,14.9507042 L41.0666667,12.342723 L38.4222222,12.342723 L38.4222222,23.2394366 C38.4222222,24.8403756 41.0666667,24.8661972 41.0666667,23.213615 L41.0666667,17.3521127 L47.6259259,17.3521127 C52.4740741,17.3521127 55.3777778,15.286385 56.4925926,12.3685446 C56.8555556,11.4389671 57.037037,10.4319249 57.037037,9.37323944 C56.9851852,8.10798122 56.7259259,6.842723 56.1814815,5.70657277 Z" id="XMLID_48_" fill="#000000" fill-rule="nonzero"></path>
                <polygon id="XMLID_45_" points="81.7185185 9.19248826 81.0185185 10.6126761 77.6740741 17.2488263 75.937037 20.6830986 87.4740741 20.6830986 85.762963 17.2488263 82.4185185 10.6126761"></polygon>
                <path d="M93.9037037,22.6455399 L88.6407407,12.342723 L85.2444444,5.70657277 L82.8851852,1.08450704 C82.6259259,0.61971831 82.1851852,0.387323944 81.7185185,0.387323944 C81.2518519,0.387323944 80.7333333,0.593896714 80.5,1.08450704 L78.1407407,5.70657277 L80.9925926,5.70657277 L81.6925926,4.28638498 L82.3925926,5.70657277 L85.7111111,12.342723 L87.4222222,15.7769953 L75.9111111,15.7769953 L77.6222222,12.342723 L74.7444444,12.342723 L69.4814815,22.7746479 C68.8333333,24.2206573 71.2444444,25.1760563 71.8925926,23.8333333 L74.8481481,18.0751174 L88.5888889,18.0751174 L91.4407407,23.7300469 C92.1407407,25.1244131 94.862963,24.2206573 93.9037037,22.6455399 Z" id="XMLID_55_" fill="#000000" fill-rule="nonzero"></path>
                <path d="M123.355556,15.9061033 C126.233333,15.415493 128.1,14.1502347 129.059259,12.342723 C129.603704,11.3356808 129.862963,10.1220657 129.862963,8.80516432 C129.862963,7.72065728 129.655556,6.66197183 129.214815,5.70657277 C127.996296,2.94366197 125.014815,0.981220657 120.322222,0.981220657 L111.662963,0.981220657 C110.859259,0.981220657 110.314815,1.49765258 110.314815,2.24647887 L110.314815,5.70657277 L112.985185,5.70657277 L112.985185,3.4084507 L120.374074,3.4084507 C122.966667,3.4084507 124.911111,4.31220657 126.051852,5.70657277 C126.777778,6.58450704 127.166667,7.64319249 127.166667,8.80516432 C127.192593,10.1995305 126.674074,11.4389671 125.533333,12.342723 C124.418519,13.2206573 122.707407,13.7629108 120.348148,13.7629108 L112.959259,13.7629108 L112.959259,12.342723 L110.288889,12.342723 L110.288889,23.1619718 C110.288889,24.7887324 112.959259,24.7887324 112.959259,23.1361502 L112.959259,16.0610329 L120.062963,16.0610329 L127.451852,24.0399061 C128.67037,25.2793427 130.666667,23.6784038 129.292593,22.2840376 L123.355556,15.9061033 Z" id="XMLID_4_" fill="#000000" fill-rule="nonzero"></path>
                <path d="M166.522222,8.80516432 C166.522222,4.54460094 163.307407,0.981220657 156.981481,0.981220657 L148.296296,0.981220657 C147.492593,0.981220657 146.948148,1.49765258 146.948148,2.24647887 L146.948148,5.70657277 L149.618519,5.70657277 L149.618519,3.4084507 L157.007407,3.4084507 C161.259259,3.4084507 163.774074,5.80985915 163.8,8.80516432 C163.877778,11.5422535 161.777778,13.7629108 157.007407,13.7629108 L149.618519,13.7629108 L149.618519,12.342723 L146.948148,12.342723 L146.948148,23.1619718 C146.948148,24.7887324 149.618519,24.7887324 149.618519,23.1361502 L149.618519,16.0610329 L156.722222,16.0610329 L164.111111,24.0399061 C165.32963,25.2793427 167.325926,23.6784038 165.951852,22.2840376 L160.014815,15.9061033 C164.5,15.157277 166.522222,12.4976526 166.522222,8.80516432 Z" id="XMLID_111_" fill="#000000" fill-rule="nonzero"></path>
                <path d="M184.1,1.49765258 L184.1,23.2910798 C184.1,25.0469484 186.848148,24.9694836 186.848148,23.2910798 L186.848148,1.49765258 C186.848148,-0.284037559 184.1,-0.335680751 184.1,1.49765258 Z" id="XMLID_113_" fill="#000000" fill-rule="nonzero"></path>
                <path d="M221.537037,1.88497653 L221.537037,14.7699531 L221.9,20.2699531 L207.822222,1.49765258 C206.914815,0.154929577 204.866667,0.438967136 204.866667,2.27230047 L204.866667,23.1361502 C204.866667,24.9694836 207.640741,24.9178404 207.640741,23.1361502 L207.640741,10.3028169 L207.355556,5.26760563 L221.044444,23.5234742 C221.822222,24.7887324 224.337037,24.6079812 224.337037,22.8004695 L224.337037,1.88497653 C224.311111,0.284037559 221.537037,0.361502347 221.537037,1.88497653 Z" id="XMLID_114_" fill="#000000" fill-rule="nonzero"></path>
                <path d="M261.333333,11.5164319 L253.581481,11.5164319 C252.051852,11.5164319 251.87037,13.9178404 253.581481,13.9178404 L260.166667,13.9178404 L260.166667,18.7723005 C258.559259,20.915493 255.733333,22.0774648 253.037037,22.0516432 C248.318519,21.9483568 244.144444,17.6361502 244.066667,12.4976526 C244.066667,7.72065728 247.566667,4.18309859 251.611111,3.25352113 C254.359259,2.55633803 257.755556,3.4084507 259.803704,5.75821596 C260.944444,7.07511737 262.811111,5.31924883 261.696296,4.05399061 C259.674074,1.73004695 256.277778,0.61971831 253.088889,0.61971831 C252.440741,0.61971831 251.740741,0.645539906 251.196296,0.723004695 C245.596296,1.78169014 241.422222,6.842723 241.422222,12.3685446 C241.266667,19.2629108 246.685185,24.4530516 252.985185,24.5046948 C256.537037,24.5305164 260.140741,22.9812207 262.318519,20.1408451 C262.655556,19.8051643 262.733333,19.3403756 262.733333,18.92723 L262.733333,12.8591549 C262.707407,12.0586854 262.396296,11.5164319 261.333333,11.5164319 Z" id="XMLID_115_" fill="#000000" fill-rule="nonzero"></path>
            </g>
            <g id="partners" transform="translate(46.925926, 39.765258)" fill-rule="nonzero">
                <path d="M85.8666667,0.516431925 C86.9555556,0.516431925 86.9555556,2.0399061 85.8666667,2.0399061 L80.8888889,2.0399061 C80.8888889,6.04225352 80.9148148,10.1220657 80.9148148,14.1244131 C80.9148148,14.6924883 80.4481481,14.9507042 80.0592593,14.9507042 C79.6703704,14.9507042 79.2555556,14.6924883 79.2555556,14.1244131 L79.2555556,2.0657277 L74.3037037,2.0657277 C73.2407407,2.0657277 73.2407407,0.542253521 74.3037037,0.542253521 L85.8666667,0.542253521 L85.8666667,0.516431925 Z" id="XMLID_80_" fill="#808285"></path>
                <path d="M108.966667,1.08450704 C108.966667,0.154929577 110.677778,0.103286385 110.677778,1.08450704 L110.677778,13.8661972 C110.677778,14.9765258 109.148148,15.0798122 108.655556,14.3051643 L100.281481,3.15023474 L100.462963,6.22300469 L100.462963,14.07277 C100.462963,15.157277 98.7518519,15.1830986 98.7518519,14.07277 L98.7518519,1.31690141 C98.7518519,0.20657277 99.9962963,0.0258215962 100.566667,0.852112676 L109.174074,12.3169014 L108.940741,8.9600939 L108.940741,1.08450704 L108.966667,1.08450704 Z" id="XMLID_82_" fill="#808285"></path>
                <path d="M126.207407,13.2464789 L135.048148,13.2464789 C135.981481,13.2464789 136.111111,14.7183099 135.048148,14.7183099 L125.637037,14.7183099 C125.014815,14.7183099 124.6,14.2793427 124.6,13.7370892 L124.6,1.52347418 C124.6,1.00704225 125.014815,0.568075117 125.637037,0.568075117 L135.074074,0.568075117 C136.033333,0.568075117 135.981481,1.98826291 135.048148,1.98826291 L126.207407,1.98826291 L126.207407,6.97183099 L134.607407,6.97183099 C135.514815,6.97183099 135.540741,8.39201878 134.607407,8.39201878 L126.207407,8.39201878 L126.207407,13.2464789 L126.207407,13.2464789 Z" id="XMLID_99_" fill="#808285"></path>
                <path d="M174.533333,11.1807512 C175.103704,13.0399061 177.592593,13.42723 179.381481,13.42723 C181.274074,13.42723 184.22963,12.8591549 184.22963,10.5868545 C184.22963,8.65023474 181.87037,8.49530516 179.433333,8.28873239 C176.348148,8.05633803 173.02963,7.74647887 173.02963,4.44131455 C173.02963,1.49765258 176.425926,0.180751174 179.148148,0.180751174 C181.507407,0.180751174 184.411111,0.748826291 185.37037,3.27934272 C185.707407,4.157277 184.177778,4.57042254 183.840741,3.82159624 C183.166667,2.11737089 180.781481,1.83333333 179.174074,1.83333333 C177.67037,1.83333333 174.766667,2.42723005 174.766667,4.46713615 C174.766667,6.40375587 176.996296,6.61032864 179.588889,6.81690141 C182.648148,7.07511737 185.940741,7.23004695 185.940741,10.5868545 C185.940741,13.9953052 182.12963,15.028169 179.355556,15.028169 C177.074074,15.028169 173.6,14.2535211 172.848148,11.5680751 C172.588889,10.6126761 174.351852,10.2769953 174.533333,11.1807512 Z" id="XMLID_105_" fill="#808285"></path>
                <path d="M10.9407407,3.53755869 C10.162963,1.91079812 8.47777778,0.645539906 5.75555556,0.645539906 L0.907407407,0.645539906 C0.466666667,0.645539906 0.0777777778,0.955399061 0.0777777778,1.42018779 L0.0777777778,3.15023474 L0.0777777778,3.53755869 L1.68518519,3.53755869 L1.68518519,2.0915493 L5.78148148,2.0915493 C7.25925926,2.0915493 8.34814815,2.68544601 9.04814815,3.53755869 C9.56666667,4.18309859 9.85185185,4.98356808 9.85185185,5.78403756 C9.87777778,6.42957746 9.6962963,7.04929577 9.33333333,7.61737089 C8.71111111,8.54694836 7.54444444,9.21830986 5.67777778,9.21830986 L1.65925926,9.21830986 L1.65925926,7.61737089 L0.0518518519,7.61737089 L0.0518518519,14.2793427 C0.0518518519,15.2605634 1.65925926,15.286385 1.65925926,14.2535211 L1.65925926,10.6643192 L5.67777778,10.6643192 C8.65925926,10.6643192 10.4222222,9.39906103 11.0962963,7.61737089 C11.3037037,7.04929577 11.4333333,6.42957746 11.4333333,5.78403756 C11.4333333,5.00938967 11.2777778,4.23474178 10.9407407,3.53755869 Z" id="XMLID_33_" fill="#828282"></path>
                <path d="M62.8185185,5.13849765 C62.8185185,2.42723005 60.7703704,0.154929577 56.7518519,0.154929577 L51.2555556,0.154929577 C50.737037,0.154929577 50.4,0.490610329 50.4,0.955399061 L50.4,3.15023474 L52.0851852,3.15023474 L52.0851852,1.70422535 L56.7777778,1.70422535 C59.4740741,1.70422535 61.0814815,3.22769953 61.1074074,5.13849765 C61.1592593,6.8685446 59.837037,8.28873239 56.7777778,8.28873239 L52.0851852,8.28873239 L52.0851852,7.38497653 L50.4,7.38497653 L50.4,14.2535211 C50.4,15.286385 52.0851852,15.286385 52.0851852,14.2276995 L52.0851852,9.73474178 L56.5962963,9.73474178 L61.2888889,14.7957746 C62.0666667,15.5962441 63.337037,14.5633803 62.4555556,13.685446 L58.6962963,9.6314554 C61.5481481,9.16666667 62.8185185,7.48826291 62.8185185,5.13849765 Z" id="XMLID_29_" fill="#828282"></path>
                <path d="M161.337037,5.03521127 C161.337037,2.32394366 159.288889,0.0516431925 155.27037,0.0516431925 L149.774074,0.0516431925 C149.255556,0.0516431925 148.918519,0.387323944 148.918519,0.852112676 L148.918519,3.04694836 L150.603704,3.04694836 L150.603704,1.60093897 L155.296296,1.60093897 C157.992593,1.60093897 159.6,3.12441315 159.625926,5.03521127 C159.677778,6.76525822 158.355556,8.18544601 155.296296,8.18544601 L150.603704,8.18544601 L150.603704,7.28169014 L148.918519,7.28169014 L148.918519,14.1502347 C148.918519,15.1830986 150.603704,15.1830986 150.603704,14.1244131 L150.603704,9.6314554 L155.114815,9.6314554 L159.807407,14.6924883 C160.585185,15.4929577 161.855556,14.4600939 160.974074,13.5821596 L157.214815,9.52816901 C160.040741,9.06338028 161.337037,7.35915493 161.337037,5.03521127 Z" id="XMLID_36_" fill="#828282"></path>
                <path d="M38.0074074,13.814554 L34.7407407,7.46244131 L32.6407407,3.35680751 L31.1888889,0.516431925 C31.0333333,0.232394366 30.7481481,0.0774647887 30.462963,0.0774647887 C30.1777778,0.0774647887 29.8407407,0.20657277 29.7111111,0.516431925 L28.2592593,3.35680751 L30.0222222,3.35680751 L30.462963,2.47887324 L30.9037037,3.35680751 L32.9518519,7.46244131 L34.0148148,9.57981221 L26.9111111,9.57981221 L27.9740741,7.46244131 L26.1851852,7.46244131 L22.9185185,13.8920188 C22.5037037,14.7957746 24.0074074,15.3638498 24.3962963,14.5375587 L26.2111111,11 L34.6888889,11 L36.4518519,14.4859155 C36.9185185,15.3638498 38.5777778,14.7957746 38.0074074,13.814554 Z" id="XMLID_104_" fill="#828282"></path>
            </g>
        </g>
    </g>
</svg>
