<?xml version="1.0" encoding="utf-8"?>
<!-- Generator: Adobe Illustrator 19.0.0, SVG Export Plug-In . SVG Version: 6.00 Build 0)  -->
<svg version="1.1" id="Layer_1" xmlns="http://www.w3.org/2000/svg" xmlns:xlink="http://www.w3.org/1999/xlink" x="0px" y="0px"
	 viewBox="0 0 1500 300" style="enable-background:new 0 0 1500 300;" xml:space="preserve">
<style type="text/css">
	.st0{fill:#21409A;}
	.st1{fill:none;}
	.st2{fill:#204497;}
	.st3{fill:#FFFFFF;}
	.st4{fill:#808285;}
	.st5{fill:#828282;}
</style>
<rect id="XMLID_28_" x="309.7" y="154.4" class="st0" width="1079.8" height="4.7"/>
<polygon id="XMLID_85_" class="st1" points="665.6,109.8 696.8,109.8 683.9,84.1 678.5,84.1 "/>
<path id="XMLID_87_" class="st1" d="M801.7,109.8h48.5c4.4-3.5,6.4-8.3,6.3-13.7c-0.1-4.5-1.6-8.6-4.3-12h-50.4V109.8z"/>
<path id="XMLID_88_" class="st1" d="M830.2,75.2h-28.5v8.9h50.4C847.7,78.7,840.2,75.2,830.2,75.2z"/>
<path id="XMLID_90_" class="st1" d="M524.3,109.8h48.3c2.3-3.5,3.3-7.6,3.2-11.6c-0.1-5-1.8-10-5.1-14.1h-46.4V109.8z"/>
<path id="XMLID_91_" class="st1" d="M524.3,120h25.3c11.7,0,19.2-4.3,23-10.1h-48.3V120z"/>
<polygon id="XMLID_92_" class="st1" points="658.9,123.1 703.4,123.1 696.8,109.8 665.6,109.8 "/>
<path id="XMLID_94_" class="st1" d="M582.7,84.1c2.1,4.4,3.1,9.3,3.1,14.1c0,4.1-0.7,8-2.1,11.6h70.7l13-25.7H582.7z"/>
<polygon id="XMLID_95_" class="st1" points="678.5,84.1 683.9,84.1 681.2,78.6 "/>
<path id="XMLID_96_" class="st1" d="M864.4,84.1c1.6,3.7,2.5,7.8,2.5,12c0,5.1-1,9.7-3.1,13.7h69V84.1H864.4z"/>
<path id="XMLID_97_" class="st1" d="M958.2,109.8h-15.1v5.5h28.5c18.5,0,26.5-8.6,26.2-19.2c-0.1-11.6-9.9-20.9-26.2-20.9h-28.5v8.9
	h15.1h-15.1v25.7H958.2z"/>
<path id="XMLID_98_" d="M409.2,86.7c-16.4-1.3-30.5-2.5-30.5-14.8c0-12.8,18.3-16.6,27.8-16.6c10.2,0,25.3,1.8,29.5,12.6
	c2.1,4.8,11.7,2.3,9.6-3.4c-5.9-16.1-24.4-19.6-39.2-19.6c-17.2,0-38.7,8.3-38.7,26.9c0,21,20.9,22.9,40.3,24.4
	c15.5,1.3,30.3,2.3,30.3,14.5c0,14.2-18.6,17.9-30.6,17.9c-11.3,0-26.9-2.5-30.6-14.2c-1.1-5.8-12.1-3.7-10.4,2.5
	c4.7,16.9,26.7,21.9,41.1,21.9c17.4,0,41.5-6.6,41.5-28.2C449.2,89.4,428.5,88.4,409.2,86.7z"/>
<path id="XMLID_48_" d="M582.7,65.1c-4.9-10.3-15.6-18.3-32.7-18.3h-30.6c-2.8,0-5.2,2-5.2,4.9v10.9v2.4h10.2V56h25.8
	c9.3,0,16.2,3.8,20.6,9.1c3.3,4.1,5.1,9.1,5.1,14.1c0.1,4-0.9,8.1-3.2,11.6c-3.9,5.8-11.3,10.1-23,10.1h-25.3V90.8h-10.2V133
	c0,6.2,10.2,6.3,10.2-0.1v-22.7h25.3c18.7,0,29.9-8,34.2-19.3c1.4-3.6,2.1-7.5,2.1-11.6C585.8,74.4,584.8,69.5,582.7,65.1z"/>
<polygon id="XMLID_45_" class="st1" points="681.2,78.6 678.5,84.1 665.6,109.8 658.9,123.1 703.4,123.1 696.8,109.8 683.9,84.1 "/>
<g id="XMLID_26_">
	<path id="XMLID_55_" d="M728.2,130.7l-20.3-39.9l-13.1-25.7l-9.1-17.9c-1-1.8-2.7-2.7-4.5-2.7c-1.8,0-3.8,0.8-4.7,2.7l-9.1,17.9h11
		l2.7-5.5l2.7,5.5l12.8,25.7l6.6,13.3h-44.4l6.6-13.3h-11.1L634,131.2c-2.5,5.6,6.8,9.3,9.3,4.1l11.4-22.3h53l11,21.9
		C721.4,140.3,731.9,136.8,728.2,130.7z"/>
</g>
<path id="XMLID_4_" d="M841.8,104.6c11.1-1.9,18.3-6.8,22-13.8c2.1-3.9,3.1-8.6,3.1-13.7c0-4.2-0.8-8.3-2.5-12
	c-4.7-10.7-16.2-18.3-34.3-18.3h-33.4c-3.1,0-5.2,2-5.2,4.9v13.4h10.3v-8.9h28.5c10,0,17.5,3.5,21.9,8.9c2.8,3.4,4.3,7.5,4.3,12
	c0.1,5.4-1.9,10.2-6.3,13.7c-4.3,3.4-10.9,5.5-20,5.5h-28.5v-5.5h-10.3v41.9c0,6.3,10.3,6.3,10.3-0.1v-27.4h27.4l28.5,30.9
	c4.7,4.8,12.4-1.4,7.1-6.8L841.8,104.6z"/>
<path id="XMLID_111_" d="M1008.3,77.1c0-16.5-12.4-30.3-36.8-30.3H938c-3.1,0-5.2,2-5.2,4.9v13.4h10.3v-8.9h28.5
	c16.4,0,26.1,9.3,26.2,20.9c0.3,10.6-7.8,19.2-26.2,19.2h-28.5v-5.5h-10.3v41.9c0,6.3,10.3,6.3,10.3-0.1v-27.4h27.4l28.5,30.9
	c4.7,4.8,12.4-1.4,7.1-6.8l-22.9-24.7C1000.5,101.7,1008.3,91.4,1008.3,77.1z"/>
<path id="XMLID_113_" d="M1076.1,48.8v84.4c0,6.8,10.6,6.5,10.6,0V48.8C1086.7,41.9,1076.1,41.7,1076.1,48.8z"/>
<path id="XMLID_114_" d="M1220.5,50.3v49.9l1.4,21.3l-54.3-72.7c-3.5-5.2-11.4-4.1-11.4,3v80.8c0,7.1,10.7,6.9,10.7,0V82.9
	l-1.1-19.5l52.8,70.7c3,4.9,12.7,4.2,12.7-2.8v-81C1231.2,44.1,1220.5,44.4,1220.5,50.3z"/>
<path id="XMLID_115_" d="M1374,87.6h-29.9c-5.9,0-6.6,9.3,0,9.3h25.4v18.8c-6.2,8.3-17.1,12.8-27.5,12.7
	c-18.2-0.4-34.3-17.1-34.6-37c0-18.5,13.5-32.2,29.1-35.8c10.6-2.7,23.7,0.6,31.6,9.7c4.4,5.1,11.6-1.7,7.3-6.6
	c-7.8-9-20.9-13.3-33.2-13.3c-2.5,0-5.2,0.1-7.3,0.4c-21.6,4.1-37.7,23.7-37.7,45.1c-0.6,26.7,20.3,46.8,44.6,47
	c13.7,0.1,27.6-5.9,36-16.9c1.3-1.3,1.6-3.1,1.6-4.7V92.8C1379.3,89.7,1378.1,87.6,1374,87.6z"/>
<g id="XMLID_3_">
	<g id="XMLID_32_">
		<circle id="XMLID_41_" class="st2" cx="201.3" cy="153" r="109.4"/>
		<g id="XMLID_38_">
			<path id="XMLID_39_" class="st3" d="M138,171.3c3,9.5,15.7,11.6,24.9,11.6c9.8,0,24.9-3,24.9-14.6c0-10-12-10.8-24.7-11.8
				c-15.8-1.3-32.8-2.8-32.8-19.8c0-15.1,17.4-21.9,31.4-21.9c12,0,27.1,2.9,31.9,15.9c1.7,4.6-6.1,6.7-7.8,2.8
				c-3.4-8.7-15.7-10.2-24-10.2c-7.7,0-22.6,3.1-22.6,13.5c0,10,11.5,11,24.8,12c15.7,1.4,32.6,2.2,32.6,19.4
				c0,17.6-19.6,22.9-33.7,22.9c-11.7,0-29.6-4-33.4-17.8C128.1,168.3,137.1,166.6,138,171.3z"/>
		</g>
	</g>
	<path id="XMLID_47_" class="st3" d="M268.3,132c-4.1-8.7-13.1-15.4-27.5-15.4h-25.7c-2.4,0-4.4,1.7-4.4,4.1v9.2v2.1h8.5v-7.7h21.7
		c7.8,0,13.6,3.2,17.3,7.7c2.8,3.4,4.2,7.7,4.3,11.9c0.1,3.4-0.8,6.8-2.7,9.7c-3.2,4.9-9.5,8.5-19.3,8.5h-21.2v-8.5h-8.5V189
		c0,5.2,8.5,5.3,8.5-0.1v-19.1h21.2c15.7,0,25.1-6.8,28.7-16.2c1.2-3,1.7-6.3,1.7-9.7C270.9,139.8,270.1,135.7,268.3,132z"/>
</g>
<g id="XMLID_37_">
	<g id="XMLID_34_">
		<path id="XMLID_80_" class="st4" d="M840.2,199c4.2,0,4.2,5.9,0,5.9H821c0,15.5,0.1,31.3,0.1,46.8c0,2.2-1.8,3.2-3.3,3.2
			s-3.1-1-3.1-3.2V205h-19.1c-4.1,0-4.1-5.9,0-5.9H840.2z"/>
		<path id="XMLID_82_" class="st4" d="M929.3,201.2c0-3.6,6.6-3.8,6.6,0v49.5c0,4.3-5.9,4.7-7.8,1.7l-32.3-43.2l0.7,11.9v30.4
			c0,4.2-6.6,4.3-6.6,0v-49.4c0-4.3,4.8-5,7-1.8l33.2,44.4l-0.9-13V201.2z"/>
		<path id="XMLID_99_" class="st4" d="M995.8,248.3h34.1c3.6,0,4.1,5.7,0,5.7h-36.3c-2.4,0-4-1.7-4-3.8v-47.3c0-2,1.6-3.7,4-3.7
			h36.4c3.7,0,3.5,5.5-0.1,5.5h-34.1V224h32.4c3.5,0,3.6,5.5,0,5.5h-32.4V248.3z"/>
		<path id="XMLID_105_" class="st4" d="M1182.2,240.3c2.2,7.2,11.8,8.7,18.7,8.7c7.3,0,18.7-2.2,18.7-11c0-7.5-9.1-8.1-18.5-8.9
			c-11.9-0.9-24.7-2.1-24.7-14.9c0-11.4,13.1-16.5,23.6-16.5c9.1,0,20.3,2.2,24,12c1.3,3.4-4.6,5-5.9,2.1c-2.6-6.6-11.8-7.7-18-7.7
			c-5.8,0-17,2.3-17,10.2c0,7.5,8.6,8.3,18.6,9.1c11.8,1,24.5,1.6,24.5,14.6c0,13.2-14.7,17.2-25.4,17.2c-8.8,0-22.2-3-25.1-13.4
			C1174.7,238.1,1181.5,236.8,1182.2,240.3z"/>
	</g>
	<path id="XMLID_33_" class="st5" d="M551.2,210.7c-3-6.3-9.5-11.2-20-11.2h-18.7c-1.7,0-3.2,1.2-3.2,3v6.7v1.5h6.2v-5.6h15.8
		c5.7,0,9.9,2.3,12.6,5.6c2,2.5,3.1,5.6,3.1,8.7c0.1,2.5-0.6,4.9-2,7.1c-2.4,3.6-6.9,6.2-14.1,6.2h-15.5v-6.2h-6.2v25.8
		c0,3.8,6.2,3.9,6.2-0.1v-13.9h15.5c11.5,0,18.3-4.9,20.9-11.8c0.8-2.2,1.3-4.6,1.3-7.1C553.1,216.4,552.5,213.4,551.2,210.7z"/>
	<path id="XMLID_29_" class="st5" d="M751.3,216.9c0-10.5-7.9-19.3-23.4-19.3h-21.2c-2,0-3.3,1.3-3.3,3.1v8.5h6.5v-5.6H728
		c10.4,0,16.6,5.9,16.7,13.3c0.2,6.7-4.9,12.2-16.7,12.2h-18.1v-3.5h-6.5v26.6c0,4,6.5,4,6.5-0.1v-17.4h17.4l18.1,19.6
		c3,3.1,7.9-0.9,4.5-4.3l-14.5-15.7C746.4,232.5,751.3,226,751.3,216.9z"/>
	<path id="XMLID_36_" class="st5" d="M1131.3,216.5c0-10.5-7.9-19.3-23.4-19.3h-21.2c-2,0-3.3,1.3-3.3,3.1v8.5h6.5v-5.6h18.1
		c10.4,0,16.6,5.9,16.7,13.3c0.2,6.7-4.9,12.2-16.7,12.2h-18.1v-3.5h-6.5v26.6c0,4,6.5,4,6.5-0.1v-17.4h17.4l18.1,19.6
		c3,3.1,7.9-0.9,4.5-4.3l-14.5-15.7C1126.3,232.1,1131.3,225.5,1131.3,216.5z"/>
	<path id="XMLID_104_" class="st5" d="M655.6,250.5L643,225.9l-8.1-15.9l-5.6-11c-0.6-1.1-1.7-1.7-2.8-1.7c-1.1,0-2.4,0.5-2.9,1.7
		l-5.6,11h6.8l1.7-3.4l1.7,3.4l7.9,15.9l4.1,8.2h-27.4l4.1-8.2h-6.9l-12.6,24.9c-1.6,3.5,4.2,5.7,5.7,2.5l7-13.7h32.7l6.8,13.5
		C651.4,256.5,657.8,254.3,655.6,250.5z"/>
</g>
</svg>
